<svg id="call" xmlns="http://www.w3.org/2000/svg" width="17.999" height="17.999" viewBox="0 0 17.999 17.999">
  <g id="Group_4127" data-name="Group 4127">
    <path id="Path_2244" data-name="Path 2244" d="M16.555,11.814a10.219,10.219,0,0,1-3.209-.511,1.467,1.467,0,0,0-1.427.3L9.895,13.132A11.184,11.184,0,0,1,4.866,8.1L6.349,6.133a1.455,1.455,0,0,0,.358-1.474,10.235,10.235,0,0,1-.513-3.215A1.446,1.446,0,0,0,4.75,0H1.444A1.446,1.446,0,0,0,0,1.444,16.573,16.573,0,0,0,16.555,18,1.446,1.446,0,0,0,18,16.555v-3.3A1.446,1.446,0,0,0,16.555,11.814Z" fill="#fff"/>
  </g>
</svg>
