<svg xmlns="http://www.w3.org/2000/svg" width="24" height="24" viewBox="0 0 24 24">
  <g id="Group_4152" data-name="Group 4152" transform="translate(-1876 -1613)">
    <rect id="Rectangle_47" data-name="Rectangle 47" width="24" height="24" transform="translate(1876 1613)" fill="none"/>
    <g id="shopping-cart_1_" data-name="shopping-cart(1)" transform="translate(1879 1617)">
      <path id="Path_2172" data-name="Path 2172" d="M5.573,10.071h9.1a.5.5,0,0,0,.484-.365l2.014-7.05a.5.5,0,0,0-.484-.642H4.41L4.05.394A.5.5,0,0,0,3.558,0H.5a.5.5,0,0,0,0,1.007H3.154L4.973,9.19a1.51,1.51,0,0,0,.6,2.9h9.1a.5.5,0,1,0,0-1.007h-9.1a.5.5,0,0,1,0-1.007Zm0,0" fill="#fff"/>
      <path id="Path_2173" data-name="Path 2173" d="M151,361.515A1.511,1.511,0,1,0,152.511,360,1.512,1.512,0,0,0,151,361.515Zm0,0" transform="translate(-145.931 -347.919)" fill="#fff"/>
      <path id="Path_2174" data-name="Path 2174" d="M362,361.515A1.511,1.511,0,1,0,363.515,360,1.512,1.512,0,0,0,362,361.515Zm0,0" transform="translate(-349.852 -347.919)" fill="#fff"/>
    </g>
  </g>
</svg>
