<svg xmlns="http://www.w3.org/2000/svg" width="17.622" height="18.365" viewBox="0 0 17.622 18.365">
  <g id="discount" transform="translate(-10.359 0.002)">
    <g id="Group_4032" data-name="Group 4032" transform="translate(10.359 -0.002)">
      <g id="Group_4031" data-name="Group 4031" transform="translate(0 0)">
        <path id="Path_2175" data-name="Path 2175" d="M27.131,9.419a.538.538,0,0,1,0-.476l.685-1.4a1.594,1.594,0,0,0-.688-2.117l-1.378-.731a.538.538,0,0,1-.28-.385L25.2,2.772a1.594,1.594,0,0,0-1.8-1.308l-1.544.218a.538.538,0,0,1-.452-.147L20.283.451a1.594,1.594,0,0,0-2.226,0L16.936,1.536a.538.538,0,0,1-.452.147l-1.544-.218a1.594,1.594,0,0,0-1.8,1.308l-.269,1.536a.538.538,0,0,1-.28.385l-1.378.731a1.594,1.594,0,0,0-.688,2.117l.685,1.4a.538.538,0,0,1,0,.476l-.685,1.4a1.594,1.594,0,0,0,.688,2.117l1.378.731a.538.538,0,0,1,.28.385l.269,1.536a1.593,1.593,0,0,0,1.572,1.325,1.638,1.638,0,0,0,.229-.016l1.544-.218a.538.538,0,0,1,.452.147l1.121,1.084a1.594,1.594,0,0,0,2.226,0L21.4,16.826a.539.539,0,0,1,.452-.147L23.4,16.9a1.594,1.594,0,0,0,1.8-1.308l.269-1.536a.538.538,0,0,1,.28-.385l1.378-.731a1.594,1.594,0,0,0,.688-2.117Zm-10.08-5A1.942,1.942,0,1,1,15.11,6.356,1.944,1.944,0,0,1,17.052,4.414Zm-1,8.636A.53.53,0,1,1,15.3,12.3l6.991-6.991a.53.53,0,0,1,.749.749Zm5.239.9a1.942,1.942,0,1,1,1.942-1.942A1.944,1.944,0,0,1,21.288,13.947Z" transform="translate(-10.359 0.002)" fill="#2b4081"/>
      </g>
    </g>
    <g id="Group_4034" data-name="Group 4034" transform="translate(20.406 11.123)">
      <g id="Group_4033" data-name="Group 4033">
        <path id="Path_2176" data-name="Path 2176" d="M291.335,310.141a.883.883,0,1,0,.883.883A.884.884,0,0,0,291.335,310.141Z" transform="translate(-290.452 -310.141)" fill="#2b4081"/>
      </g>
    </g>
    <g id="Group_4036" data-name="Group 4036" transform="translate(16.169 5.473)">
      <g id="Group_4035" data-name="Group 4035" transform="translate(0)">
        <path id="Path_2177" data-name="Path 2177" d="M173.216,152.646a.883.883,0,1,0,.883.883A.884.884,0,0,0,173.216,152.646Z" transform="translate(-172.333 -152.646)" fill="#2b4081"/>
      </g>
    </g>
  </g>
</svg>
