<svg id="edit" xmlns="http://www.w3.org/2000/svg" width="9.306" height="9.306" viewBox="0 0 9.306 9.306">
  <g id="Group_4119" data-name="Group 4119" transform="translate(0 0.284)">
    <g id="Group_4118" data-name="Group 4118">
      <path id="Path_2238" data-name="Path 2238" d="M8.67,20.844a.355.355,0,0,0-.355.355v2.747H.713v-7.6H3.46a.355.355,0,0,0,0-.71H.358A.355.355,0,0,0,0,15.989V24.3a.355.355,0,0,0,.355.355H8.67a.355.355,0,0,0,.355-.355V21.2A.355.355,0,0,0,8.67,20.844Z" transform="translate(-0.003 -15.634)" fill="#2b4081"/>
    </g>
  </g>
  <g id="Group_4121" data-name="Group 4121" transform="translate(2.64)">
    <g id="Group_4120" data-name="Group 4120">
      <path id="Path_2239" data-name="Path 2239" d="M151.826,1.371,150.559.1a.355.355,0,0,0-.5,0L145.865,4.3a.355.355,0,0,0-.091.155l-.5,1.764a.355.355,0,0,0,.438.438l1.764-.5a.356.356,0,0,0,.155-.091l4.191-4.191A.355.355,0,0,0,151.826,1.371ZM147.2,5.5l-1.065.3.3-1.065L150.308.858l.765.765Z" transform="translate(-145.264)" fill="#2b4081"/>
    </g>
  </g>
  <g id="Group_4123" data-name="Group 4123" transform="translate(3.253 4.283)">
    <g id="Group_4122" data-name="Group 4122" transform="translate(0 0)">
      <rect id="Rectangle_181" data-name="Rectangle 181" width="0.71" height="1.791" transform="translate(0 0.502) rotate(-45)" fill="#2b4081"/>
    </g>
  </g>
</svg>
