<svg xmlns="http://www.w3.org/2000/svg" width="14.04" height="12.491" viewBox="0 0 14.04 12.491">
  <path id="heart_1_" data-name="heart(1)" d="M7.02,12.491a.823.823,0,0,1-.543-.2c-.567-.5-1.114-.962-1.6-1.373l0,0A29.692,29.692,0,0,1,1.393,7.64,5.226,5.226,0,0,1,0,4.219a4.388,4.388,0,0,1,1.114-3A3.775,3.775,0,0,1,3.922,0,3.532,3.532,0,0,1,6.128.761a4.513,4.513,0,0,1,.892.931A4.514,4.514,0,0,1,7.912.761,3.532,3.532,0,0,1,10.118,0a3.776,3.776,0,0,1,2.808,1.222,4.388,4.388,0,0,1,1.114,3A5.225,5.225,0,0,1,12.648,7.64a29.686,29.686,0,0,1-3.485,3.272c-.483.412-1.031.879-1.6,1.376A.824.824,0,0,1,7.02,12.491ZM3.922.822a2.962,2.962,0,0,0-2.2.957,3.57,3.57,0,0,0-.9,2.44,4.4,4.4,0,0,0,1.2,2.9,29.218,29.218,0,0,0,3.386,3.171l0,0c.484.413,1.033.881,1.6,1.38.575-.5,1.125-.969,1.61-1.383a29.224,29.224,0,0,0,3.386-3.17,4.4,4.4,0,0,0,1.2-2.9,3.57,3.57,0,0,0-.9-2.44,2.962,2.962,0,0,0-2.2-.957,2.728,2.728,0,0,0-1.7.59,3.991,3.991,0,0,0-.949,1.1.519.519,0,0,1-.892,0,3.987,3.987,0,0,0-.949-1.1A2.728,2.728,0,0,0,3.922.822Zm0,0"/>
</svg>
