<svg id="information_1_" data-name="information(1)" xmlns="http://www.w3.org/2000/svg" width="15.845" height="15.845" viewBox="0 0 15.845 15.845">
  <g id="Group_4100" data-name="Group 4100">
    <g id="Group_4099" data-name="Group 4099">
      <circle id="Ellipse_26" data-name="Ellipse 26" cx="0.774" cy="0.774" r="0.774" transform="translate(7.149 10.94)" fill="#cc9a52"/>
      <path id="Path_2232" data-name="Path 2232" d="M7.923,0a7.923,7.923,0,1,0,7.923,7.923A7.918,7.918,0,0,0,7.923,0Zm0,14.607a6.685,6.685,0,1,1,6.685-6.685A6.681,6.681,0,0,1,7.923,14.607Z" fill="#cc9a52"/>
      <path id="Path_2233" data-name="Path 2233" d="M178.476,128.5A2.479,2.479,0,0,0,176,130.976a.619.619,0,0,0,1.238,0,1.238,1.238,0,1,1,1.238,1.238.619.619,0,0,0-.619.619v1.547a.619.619,0,1,0,1.238,0v-1.007a2.476,2.476,0,0,0-.619-4.873Z" transform="translate(-170.553 -124.523)" fill="#cc9a52"/>
    </g>
  </g>
</svg>
