<svg id="profile_icon" data-name="profile icon" xmlns="http://www.w3.org/2000/svg" width="15.963" height="16.05" viewBox="0 0 15.963 16.05">
  <circle id="Ellipse_" data-name="Ellipse " cx="3.206" cy="3.206" r="3.206" transform="translate(4.78 0)" fill="#2b4081"/>
  <path id="Path_" data-name="Path " d="M16.978,21.326a8.052,8.052,0,0,0-2.2-3.991,6.662,6.662,0,0,0-.866-.732A8.014,8.014,0,0,0,9.039,15,8.142,8.142,0,0,0,3.29,17.335a8.052,8.052,0,0,0-2.2,3.991,1.827,1.827,0,0,0,.369,1.539,1.881,1.881,0,0,0,1.475.684h12.2a1.881,1.881,0,0,0,1.469-.705A1.827,1.827,0,0,0,16.978,21.326Z" transform="translate(-1.053 -7.498)" fill="#2b4081"/>
</svg>
