<svg id="icon_search" data-name="icon/search" xmlns="http://www.w3.org/2000/svg" width="15" height="15" viewBox="0 0 15 15">
  <path id="Vector" d="M14.395,11.551,11.464,8.692a5.712,5.712,0,0,0,.7-2.766A6.017,6.017,0,0,0,6.076,0,6.006,6.006,0,0,0,0,5.926a6.014,6.014,0,0,0,6.076,5.926,6.305,6.305,0,0,0,2.3-.44l3.074,3a2.129,2.129,0,0,0,2.943,0,1.991,1.991,0,0,0,0-2.859ZM1.424,5.926A4.6,4.6,0,0,1,6.076,1.389a4.6,4.6,0,0,1,4.652,4.537,4.381,4.381,0,0,1-.665,2.338c-.012.012-.024.012-.036.023a.673.673,0,0,0-.166.278,4.684,4.684,0,0,1-3.8,1.91A4.6,4.6,0,0,1,1.424,5.926Zm11.962,7.5a.671.671,0,0,1-.926,0L9.672,10.718a6.117,6.117,0,0,0,.961-.856l2.741,2.674a.631.631,0,0,1,.19.451A.568.568,0,0,1,13.386,13.426Z" fill="#414141"/>
</svg>
