<svg xmlns="http://www.w3.org/2000/svg" width="13.647" height="15.672" viewBox="0 0 13.647 15.672">
  <g id="sent" transform="translate(-33.062)">
    <g id="Group_4082" data-name="Group 4082" transform="translate(33.062)">
      <g id="Group_4081" data-name="Group 4081">
        <path id="Path_2228" data-name="Path 2228" d="M46.648,4.325l-.012-.02a.74.74,0,0,0-.055-.1L44.4.44A.884.884,0,0,0,43.638,0h-7.5a.884.884,0,0,0-.764.441L33.155,4.285a.46.46,0,0,0-.045.108.776.776,0,0,0-.048.27v9.928a1.081,1.081,0,0,0,1.08,1.08H45.63a1.081,1.081,0,0,0,1.08-1.08V4.627c0-.013,0-.027,0-.04A.457.457,0,0,0,46.648,4.325ZM40.361.919h3.255l1.715,2.965H40.361Zm-4.205,0h3.286V3.884h-5Zm9.635,13.673a.162.162,0,0,1-.161.161H34.142a.162.162,0,0,1-.161-.161V4.8h11.81Z" transform="translate(-33.062)" fill="#cc9a52"/>
      </g>
    </g>
    <g id="Group_4084" data-name="Group 4084" transform="translate(37.698 8.131)">
      <g id="Group_4083" data-name="Group 4083">
        <path id="Path_2229" data-name="Path 2229" d="M188.785,265.766a.459.459,0,0,0-.65,0l-2.051,2.051-.789-.789a.459.459,0,1,0-.65.65l1.113,1.113a.459.459,0,0,0,.649,0l2.376-2.376A.459.459,0,0,0,188.785,265.766Z" transform="translate(-184.512 -265.632)" fill="#cc9a52"/>
      </g>
    </g>
  </g>
</svg>
