<svg xmlns="http://www.w3.org/2000/svg" width="16.742" height="14.324" viewBox="0 0 16.742 14.324">
  <g id="speaker" transform="translate(0 -34.562)">
    <g id="Group_4103" data-name="Group 4103" transform="translate(0 34.562)">
      <path id="Path_2234" data-name="Path 2234" d="M14.951,39.337h-.6V35.159a.6.6,0,0,0-.819-.554L4.719,38.143H1.791A1.791,1.791,0,0,0,0,39.934v2.387a1.791,1.791,0,0,0,1.791,1.791h.03V48.29a.6.6,0,0,0,.6.6H4.8a.6.6,0,0,0,.6-.6v-3.9l8.134,3.265a.586.586,0,0,0,.222.043.6.6,0,0,0,.6-.6V42.918h.6a1.791,1.791,0,1,0,0-3.581ZM4.208,47.693H3.014V44.112H4.208v3.581Zm.03-4.775H1.791a.6.6,0,0,1-.6-.6V39.934a.6.6,0,0,1,.6-.6H4.238Zm8.923,3.3-7.729-3.1V39.143l7.729-3.1Zm1.791-4.489h-.6V40.53h.6a.6.6,0,1,1,0,1.194Z" transform="translate(0 -34.562)" fill="#cc9a52"/>
    </g>
  </g>
</svg>
