<svg id="support" xmlns="http://www.w3.org/2000/svg" width="13.235" height="14.451" viewBox="0 0 13.235 14.451">
  <g id="Group_3998" data-name="Group 3998" transform="translate(0)">
    <path id="Path_2166" data-name="Path 2166" d="M29.6,5.974h-.036V5.1a5.1,5.1,0,1,0-10.194,0v.876h-.215a1.457,1.457,0,0,0-1.4,1.5V9.712a1.413,1.413,0,0,0,1.377,1.448h1.342A.34.34,0,0,0,20.8,10.8q0-.01,0-.02V6.4c0-.215-.125-.429-.322-.429h-.393V5.1a4.382,4.382,0,0,1,8.764,0v.876h-.393c-.2,0-.322.215-.322.429v4.382a.34.34,0,0,0,.3.374l.02,0h.411l-.036.054a2.826,2.826,0,0,1-2.271,1.127,1.771,1.771,0,0,0-3.505.34,1.788,1.788,0,0,0,1.789,1.771,1.842,1.842,0,0,0,1.288-.554,1.574,1.574,0,0,0,.429-.858A3.541,3.541,0,0,0,29.4,11.625l.34-.5A1.218,1.218,0,0,0,30.992,9.89V7.655A1.625,1.625,0,0,0,29.6,5.974Zm-9.515,4.471h-.93a.7.7,0,0,1-.68-.714c0-.006,0-.013,0-.019V7.476a.742.742,0,0,1,.68-.787h.93ZM25.608,13.4a1.055,1.055,0,0,1-.769.34,1.091,1.091,0,0,1-1.073-1.055,1.055,1.055,0,0,1,2.11,0h0A.948.948,0,0,1,25.608,13.4ZM30.276,9.89c0,.483-.465.554-.68.554h-.751V6.689H29.6c.393,0,.68.554.68.966Z" transform="translate(-17.756)" fill="#cc9a52"/>
  </g>
</svg>
