<svg xmlns="http://www.w3.org/2000/svg" width="12.792" height="15.745" viewBox="0 0 12.792 15.745">
  <g id="trash" transform="translate(-48)">
    <path id="Path_2157" data-name="Path 2157" d="M59.562,1.968H56.856V1.476A1.476,1.476,0,0,0,55.38,0H53.412a1.476,1.476,0,0,0-1.476,1.476v.492H49.23A1.23,1.23,0,0,0,48,3.2v.984a.492.492,0,0,0,.492.492H60.3a.492.492,0,0,0,.492-.492V3.2A1.23,1.23,0,0,0,59.562,1.968ZM52.92,1.476a.493.493,0,0,1,.492-.492H55.38a.493.493,0,0,1,.492.492v.492H52.92Z" transform="translate(0)" fill="#eb6a6a"/>
    <path id="Path_2158" data-name="Path 2158" d="M73.518,184a.154.154,0,0,0-.154.161l.406,8.519a1.474,1.474,0,0,0,1.474,1.406h7.472a1.474,1.474,0,0,0,1.474-1.406l.406-8.519a.154.154,0,0,0-.154-.161Zm7.431,1.23a.492.492,0,1,1,.984,0v6.4a.492.492,0,0,1-.984,0Zm-2.46,0a.492.492,0,1,1,.984,0v6.4a.492.492,0,0,1-.984,0Zm-2.46,0a.492.492,0,1,1,.984,0v6.4a.492.492,0,0,1-.984,0Z" transform="translate(-24.584 -178.342)" fill="#eb6a6a"/>
  </g>
</svg>
