<svg xmlns="http://www.w3.org/2000/svg" width="14.524" height="9.516" viewBox="0 0 14.524 9.516">
  <g id="united-states" transform="translate(0 -88.276)">
    <path id="Path_2272" data-name="Path 2272" d="M14.273,97.792H.25a.25.25,0,0,1-.25-.25V88.526a.25.25,0,0,1,.25-.25H14.274a.25.25,0,0,1,.25.25v9.015A.25.25,0,0,1,14.273,97.792Z" fill="#f5f5f5"/>
    <g id="Group_4136" data-name="Group 4136" transform="translate(0 88.276)">
      <path id="Path_2273" data-name="Path 2273" d="M14.524,89.008H0v-.482a.25.25,0,0,1,.25-.25H14.274a.25.25,0,0,1,.25.25v.482Z" transform="translate(0 -88.276)" fill="#ff4b55"/>
      <rect id="Rectangle_204" data-name="Rectangle 204" width="14.524" height="0.732" transform="translate(0 2.928)" fill="#ff4b55"/>
      <rect id="Rectangle_205" data-name="Rectangle 205" width="14.524" height="0.732" transform="translate(0 1.464)" fill="#ff4b55"/>
      <path id="Path_2274" data-name="Path 2274" d="M14.524,243.83H.25a.25.25,0,0,1-.25-.25V243.1H14.524Z" transform="translate(0 -238.706)" fill="#ff4b55"/>
      <rect id="Rectangle_206" data-name="Rectangle 206" width="14.524" height="0.732" transform="translate(0 7.32)" fill="#ff4b55"/>
      <path id="Path_2275" data-name="Path 2275" d="M14.273,398.653H.25A.25.25,0,0,1,0,398.4v-.482H14.524v.482A.25.25,0,0,1,14.273,398.653Z" transform="translate(0 -389.137)" fill="#ff4b55"/>
      <rect id="Rectangle_207" data-name="Rectangle 207" width="14.524" height="0.732" transform="translate(0 5.856)" fill="#ff4b55"/>
    </g>
    <path id="Path_2276" data-name="Path 2276" d="M6.511,88.277H.25a.25.25,0,0,0-.25.25V93.15a.25.25,0,0,0,.25.25h6.26a.25.25,0,0,0,.25-.25V88.527A.25.25,0,0,0,6.511,88.277Z" transform="translate(0 -0.001)" fill="#41479b"/>
    <g id="Group_4137" data-name="Group 4137" transform="translate(0.404 88.835)">
      <path id="Path_2277" data-name="Path 2277" d="M14.552,107.985l.055.166h.175a.024.024,0,0,1,.014.043l-.141.1.053.167a.024.024,0,0,1-.036.026l-.143-.1-.143.1a.024.024,0,0,1-.036-.026l.053-.167-.141-.1a.024.024,0,0,1,.014-.043h.175l.055-.166A.024.024,0,0,1,14.552,107.985Z" transform="translate(-14.253 -107.969)" fill="#f5f5f5"/>
      <path id="Path_2278" data-name="Path 2278" d="M14.552,138.64l.055.166h.175a.024.024,0,0,1,.014.043l-.141.1.053.167a.024.024,0,0,1-.036.026l-.143-.1-.143.1a.024.024,0,0,1-.036-.026l.053-.167-.141-.1a.024.024,0,0,1,.014-.043h.175l.055-.166A.024.024,0,0,1,14.552,138.64Z" transform="translate(-14.253 -137.754)" fill="#f5f5f5"/>
      <path id="Path_2279" data-name="Path 2279" d="M14.552,169.294l.055.166h.175a.024.024,0,0,1,.014.043l-.141.1.053.167a.024.024,0,0,1-.036.026l-.143-.1-.143.1a.024.024,0,0,1-.036-.026l.053-.167-.141-.1a.024.024,0,0,1,.014-.043h.175l.055-.166A.024.024,0,0,1,14.552,169.294Z" transform="translate(-14.253 -167.538)" fill="#f5f5f5"/>
      <path id="Path_2280" data-name="Path 2280" d="M14.552,199.948l.055.166h.175a.024.024,0,0,1,.014.043l-.141.1.053.167a.024.024,0,0,1-.036.026l-.143-.1-.143.1a.024.024,0,0,1-.036-.026l.053-.167-.141-.1a.024.024,0,0,1,.014-.043h.175l.055-.166A.024.024,0,0,1,14.552,199.948Z" transform="translate(-14.253 -197.323)" fill="#f5f5f5"/>
      <path id="Path_2281" data-name="Path 2281" d="M14.552,230.6l.055.166h.175a.024.024,0,0,1,.014.043l-.141.1.053.167a.024.024,0,0,1-.036.026l-.143-.1-.143.1a.024.024,0,0,1-.036-.026l.053-.167-.141-.1a.024.024,0,0,1,.014-.043h.175l.055-.166A.024.024,0,0,1,14.552,230.6Z" transform="translate(-14.253 -227.107)" fill="#f5f5f5"/>
      <path id="Path_2282" data-name="Path 2282" d="M38.345,123.015l.055.166h.175a.024.024,0,0,1,.014.043l-.141.1.053.167a.024.024,0,0,1-.036.026l-.143-.1-.143.1a.024.024,0,0,1-.036-.026l.053-.167-.141-.1a.024.024,0,0,1,.014-.043h.175l.055-.166A.024.024,0,0,1,38.345,123.015Z" transform="translate(-37.371 -122.572)" fill="#f5f5f5"/>
      <path id="Path_2283" data-name="Path 2283" d="M38.345,153.669l.055.166h.175a.024.024,0,0,1,.014.043l-.141.1.053.167a.024.024,0,0,1-.036.026l-.143-.1-.143.1a.024.024,0,0,1-.036-.026l.053-.167-.141-.1a.024.024,0,0,1,.014-.043h.175l.055-.166A.024.024,0,0,1,38.345,153.669Z" transform="translate(-37.371 -152.357)" fill="#f5f5f5"/>
      <path id="Path_2284" data-name="Path 2284" d="M38.345,184.323l.055.166h.175a.024.024,0,0,1,.014.043l-.141.1.053.167a.024.024,0,0,1-.036.026l-.143-.1-.143.1a.024.024,0,0,1-.036-.026l.053-.167-.141-.1a.024.024,0,0,1,.014-.043h.175l.055-.166A.024.024,0,0,1,38.345,184.323Z" transform="translate(-37.371 -182.141)" fill="#f5f5f5"/>
      <path id="Path_2285" data-name="Path 2285" d="M38.345,214.978l.055.166h.175a.024.024,0,0,1,.014.043l-.141.1.053.167a.024.024,0,0,1-.036.026l-.143-.1-.143.1a.024.024,0,0,1-.036-.026l.053-.167-.141-.1a.024.024,0,0,1,.014-.043h.175l.055-.166A.024.024,0,0,1,38.345,214.978Z" transform="translate(-37.371 -211.926)" fill="#f5f5f5"/>
      <path id="Path_2286" data-name="Path 2286" d="M62.138,107.985l.055.166h.175a.024.024,0,0,1,.014.043l-.141.1.053.167a.024.024,0,0,1-.036.026l-.143-.1-.143.1a.024.024,0,0,1-.036-.026l.053-.167-.141-.1a.024.024,0,0,1,.014-.043h.175l.055-.166A.024.024,0,0,1,62.138,107.985Z" transform="translate(-60.489 -107.969)" fill="#f5f5f5"/>
      <path id="Path_2287" data-name="Path 2287" d="M62.138,138.64l.055.166h.175a.024.024,0,0,1,.014.043l-.141.1.053.167a.024.024,0,0,1-.036.026l-.143-.1-.143.1a.024.024,0,0,1-.036-.026l.053-.167-.141-.1a.024.024,0,0,1,.014-.043h.175l.055-.166A.024.024,0,0,1,62.138,138.64Z" transform="translate(-60.489 -137.754)" fill="#f5f5f5"/>
      <path id="Path_2288" data-name="Path 2288" d="M62.138,169.294l.055.166h.175a.024.024,0,0,1,.014.043l-.141.1.053.167a.024.024,0,0,1-.036.026l-.143-.1-.143.1a.024.024,0,0,1-.036-.026l.053-.167-.141-.1a.024.024,0,0,1,.014-.043h.175l.055-.166A.024.024,0,0,1,62.138,169.294Z" transform="translate(-60.489 -167.538)" fill="#f5f5f5"/>
      <path id="Path_2289" data-name="Path 2289" d="M62.138,199.948l.055.166h.175a.024.024,0,0,1,.014.043l-.141.1.053.167a.024.024,0,0,1-.036.026l-.143-.1-.143.1a.024.024,0,0,1-.036-.026l.053-.167-.141-.1a.024.024,0,0,1,.014-.043h.175l.055-.166A.024.024,0,0,1,62.138,199.948Z" transform="translate(-60.489 -197.323)" fill="#f5f5f5"/>
      <path id="Path_2290" data-name="Path 2290" d="M62.138,230.6l.055.166h.175a.024.024,0,0,1,.014.043l-.141.1.053.167a.024.024,0,0,1-.036.026l-.143-.1-.143.1a.024.024,0,0,1-.036-.026l.053-.167-.141-.1a.024.024,0,0,1,.014-.043h.175l.055-.166A.024.024,0,0,1,62.138,230.6Z" transform="translate(-60.489 -227.107)" fill="#f5f5f5"/>
      <path id="Path_2291" data-name="Path 2291" d="M85.932,123.015l.055.166h.175a.024.024,0,0,1,.014.043l-.141.1.053.167a.024.024,0,0,1-.036.026l-.143-.1-.143.1a.024.024,0,0,1-.036-.026l.053-.167-.141-.1a.024.024,0,0,1,.014-.043h.175l.055-.166A.024.024,0,0,1,85.932,123.015Z" transform="translate(-83.608 -122.572)" fill="#f5f5f5"/>
      <path id="Path_2292" data-name="Path 2292" d="M85.932,153.669l.055.166h.175a.024.024,0,0,1,.014.043l-.141.1.053.167a.024.024,0,0,1-.036.026l-.143-.1-.143.1a.024.024,0,0,1-.036-.026l.053-.167-.141-.1a.024.024,0,0,1,.014-.043h.175l.055-.166A.024.024,0,0,1,85.932,153.669Z" transform="translate(-83.608 -152.357)" fill="#f5f5f5"/>
      <path id="Path_2293" data-name="Path 2293" d="M85.932,184.323l.055.166h.175a.024.024,0,0,1,.014.043l-.141.1.053.167a.024.024,0,0,1-.036.026l-.143-.1-.143.1a.024.024,0,0,1-.036-.026l.053-.167-.141-.1a.024.024,0,0,1,.014-.043h.175l.055-.166A.024.024,0,0,1,85.932,184.323Z" transform="translate(-83.608 -182.141)" fill="#f5f5f5"/>
      <path id="Path_2294" data-name="Path 2294" d="M85.932,214.978l.055.166h.175a.024.024,0,0,1,.014.043l-.141.1.053.167a.024.024,0,0,1-.036.026l-.143-.1-.143.1a.024.024,0,0,1-.036-.026l.053-.167-.141-.1a.024.024,0,0,1,.014-.043h.175l.055-.166A.024.024,0,0,1,85.932,214.978Z" transform="translate(-83.608 -211.926)" fill="#f5f5f5"/>
      <path id="Path_2295" data-name="Path 2295" d="M109.724,107.985l.055.166h.175a.024.024,0,0,1,.014.043l-.141.1.053.167a.024.024,0,0,1-.036.026l-.143-.1-.143.1a.024.024,0,0,1-.036-.026l.053-.167-.141-.1a.024.024,0,0,1,.014-.043h.175l.055-.166A.024.024,0,0,1,109.724,107.985Z" transform="translate(-106.725 -107.969)" fill="#f5f5f5"/>
      <path id="Path_2296" data-name="Path 2296" d="M109.724,138.64l.055.166h.175a.024.024,0,0,1,.014.043l-.141.1.053.167a.024.024,0,0,1-.036.026l-.143-.1-.143.1a.024.024,0,0,1-.036-.026l.053-.167-.141-.1a.024.024,0,0,1,.014-.043h.175l.055-.166A.024.024,0,0,1,109.724,138.64Z" transform="translate(-106.725 -137.754)" fill="#f5f5f5"/>
      <path id="Path_2297" data-name="Path 2297" d="M109.724,169.294l.055.166h.175a.024.024,0,0,1,.014.043l-.141.1.053.167a.024.024,0,0,1-.036.026l-.143-.1-.143.1a.024.024,0,0,1-.036-.026l.053-.167-.141-.1a.024.024,0,0,1,.014-.043h.175l.055-.166A.024.024,0,0,1,109.724,169.294Z" transform="translate(-106.725 -167.538)" fill="#f5f5f5"/>
      <path id="Path_2298" data-name="Path 2298" d="M109.724,199.948l.055.166h.175a.024.024,0,0,1,.014.043l-.141.1.053.167a.024.024,0,0,1-.036.026l-.143-.1-.143.1a.024.024,0,0,1-.036-.026l.053-.167-.141-.1a.024.024,0,0,1,.014-.043h.175l.055-.166A.024.024,0,0,1,109.724,199.948Z" transform="translate(-106.725 -197.323)" fill="#f5f5f5"/>
      <path id="Path_2299" data-name="Path 2299" d="M109.724,230.6l.055.166h.175a.024.024,0,0,1,.014.043l-.141.1.053.167a.024.024,0,0,1-.036.026l-.143-.1-.143.1a.024.024,0,0,1-.036-.026l.053-.167-.141-.1a.024.024,0,0,1,.014-.043h.175l.055-.166A.024.024,0,0,1,109.724,230.6Z" transform="translate(-106.725 -227.107)" fill="#f5f5f5"/>
      <path id="Path_2300" data-name="Path 2300" d="M133.518,123.015l.055.166h.175a.024.024,0,0,1,.014.043l-.141.1.053.167a.024.024,0,0,1-.036.026l-.143-.1-.143.1a.024.024,0,0,1-.036-.026l.053-.167-.141-.1a.024.024,0,0,1,.014-.043h.175l.055-.166A.024.024,0,0,1,133.518,123.015Z" transform="translate(-129.844 -122.572)" fill="#f5f5f5"/>
      <path id="Path_2301" data-name="Path 2301" d="M133.518,153.669l.055.166h.175a.024.024,0,0,1,.014.043l-.141.1.053.167a.024.024,0,0,1-.036.026l-.143-.1-.143.1a.024.024,0,0,1-.036-.026l.053-.167-.141-.1a.024.024,0,0,1,.014-.043h.175l.055-.166A.024.024,0,0,1,133.518,153.669Z" transform="translate(-129.844 -152.357)" fill="#f5f5f5"/>
      <path id="Path_2302" data-name="Path 2302" d="M133.518,184.323l.055.166h.175a.024.024,0,0,1,.014.043l-.141.1.053.167a.024.024,0,0,1-.036.026l-.143-.1-.143.1a.024.024,0,0,1-.036-.026l.053-.167-.141-.1a.024.024,0,0,1,.014-.043h.175l.055-.166A.024.024,0,0,1,133.518,184.323Z" transform="translate(-129.844 -182.141)" fill="#f5f5f5"/>
      <path id="Path_2303" data-name="Path 2303" d="M133.518,214.978l.055.166h.175a.024.024,0,0,1,.014.043l-.141.1.053.167a.024.024,0,0,1-.036.026l-.143-.1-.143.1a.024.024,0,0,1-.036-.026l.053-.167-.141-.1a.024.024,0,0,1,.014-.043h.175l.055-.166A.024.024,0,0,1,133.518,214.978Z" transform="translate(-129.844 -211.926)" fill="#f5f5f5"/>
      <path id="Path_2304" data-name="Path 2304" d="M157.312,107.985l.055.166h.175a.024.024,0,0,1,.014.043l-.141.1.053.167a.024.024,0,0,1-.036.026l-.143-.1-.143.1a.024.024,0,0,1-.036-.026l.053-.167-.141-.1a.024.024,0,0,1,.014-.043h.175l.055-.166A.024.024,0,0,1,157.312,107.985Z" transform="translate(-152.963 -107.969)" fill="#f5f5f5"/>
      <path id="Path_2305" data-name="Path 2305" d="M157.312,138.64l.055.166h.175a.024.024,0,0,1,.014.043l-.141.1.053.167a.024.024,0,0,1-.036.026l-.143-.1-.143.1a.024.024,0,0,1-.036-.026l.053-.167-.141-.1a.024.024,0,0,1,.014-.043h.175l.055-.166A.024.024,0,0,1,157.312,138.64Z" transform="translate(-152.963 -137.754)" fill="#f5f5f5"/>
      <path id="Path_2306" data-name="Path 2306" d="M157.312,169.294l.055.166h.175a.024.024,0,0,1,.014.043l-.141.1.053.167a.024.024,0,0,1-.036.026l-.143-.1-.143.1a.024.024,0,0,1-.036-.026l.053-.167-.141-.1a.024.024,0,0,1,.014-.043h.175l.055-.166A.024.024,0,0,1,157.312,169.294Z" transform="translate(-152.963 -167.538)" fill="#f5f5f5"/>
      <path id="Path_2307" data-name="Path 2307" d="M157.312,199.948l.055.166h.175a.024.024,0,0,1,.014.043l-.141.1.053.167a.024.024,0,0,1-.036.026l-.143-.1-.143.1a.024.024,0,0,1-.036-.026l.053-.167-.141-.1a.024.024,0,0,1,.014-.043h.175l.055-.166A.024.024,0,0,1,157.312,199.948Z" transform="translate(-152.963 -197.323)" fill="#f5f5f5"/>
      <path id="Path_2308" data-name="Path 2308" d="M157.312,230.6l.055.166h.175a.024.024,0,0,1,.014.043l-.141.1.053.167a.024.024,0,0,1-.036.026l-.143-.1-.143.1a.024.024,0,0,1-.036-.026l.053-.167-.141-.1a.024.024,0,0,1,.014-.043h.175l.055-.166A.024.024,0,0,1,157.312,230.6Z" transform="translate(-152.963 -227.107)" fill="#f5f5f5"/>
      <path id="Path_2309" data-name="Path 2309" d="M181.1,123.015l.055.166h.175a.024.024,0,0,1,.014.043l-.141.1.053.167a.024.024,0,0,1-.036.026l-.143-.1-.143.1a.024.024,0,0,1-.036-.026l.053-.167-.141-.1a.024.024,0,0,1,.014-.043H181l.055-.166A.024.024,0,0,1,181.1,123.015Z" transform="translate(-176.081 -122.572)" fill="#f5f5f5"/>
      <path id="Path_2310" data-name="Path 2310" d="M181.1,153.669l.055.166h.175a.024.024,0,0,1,.014.043l-.141.1.053.167a.024.024,0,0,1-.036.026l-.143-.1-.143.1a.024.024,0,0,1-.036-.026l.053-.167-.141-.1a.024.024,0,0,1,.014-.043H181l.055-.166A.024.024,0,0,1,181.1,153.669Z" transform="translate(-176.081 -152.357)" fill="#f5f5f5"/>
      <path id="Path_2311" data-name="Path 2311" d="M181.1,184.323l.055.166h.175a.024.024,0,0,1,.014.043l-.141.1.053.167a.024.024,0,0,1-.036.026l-.143-.1-.143.1a.024.024,0,0,1-.036-.026l.053-.167-.141-.1a.024.024,0,0,1,.014-.043H181l.055-.166A.024.024,0,0,1,181.1,184.323Z" transform="translate(-176.081 -182.141)" fill="#f5f5f5"/>
      <path id="Path_2312" data-name="Path 2312" d="M181.1,214.978l.055.166h.175a.024.024,0,0,1,.014.043l-.141.1.053.167a.024.024,0,0,1-.036.026l-.143-.1-.143.1a.024.024,0,0,1-.036-.026l.053-.167-.141-.1a.024.024,0,0,1,.014-.043H181l.055-.166A.024.024,0,0,1,181.1,214.978Z" transform="translate(-176.081 -211.926)" fill="#f5f5f5"/>
      <path id="Path_2313" data-name="Path 2313" d="M204.9,107.985l.055.166h.175a.024.024,0,0,1,.014.043l-.141.1.053.167a.024.024,0,0,1-.036.026l-.143-.1-.143.1a.024.024,0,0,1-.036-.026l.053-.167-.141-.1a.024.024,0,0,1,.014-.043h.175l.055-.166A.024.024,0,0,1,204.9,107.985Z" transform="translate(-199.2 -107.969)" fill="#f5f5f5"/>
      <path id="Path_2314" data-name="Path 2314" d="M204.9,138.64l.055.166h.175a.024.024,0,0,1,.014.043l-.141.1.053.167a.024.024,0,0,1-.036.026l-.143-.1-.143.1a.024.024,0,0,1-.036-.026l.053-.167-.141-.1a.024.024,0,0,1,.014-.043h.175l.055-.166A.024.024,0,0,1,204.9,138.64Z" transform="translate(-199.2 -137.754)" fill="#f5f5f5"/>
      <path id="Path_2315" data-name="Path 2315" d="M204.9,169.294l.055.166h.175a.024.024,0,0,1,.014.043l-.141.1.053.167a.024.024,0,0,1-.036.026l-.143-.1-.143.1a.024.024,0,0,1-.036-.026l.053-.167-.141-.1a.024.024,0,0,1,.014-.043h.175l.055-.166A.024.024,0,0,1,204.9,169.294Z" transform="translate(-199.2 -167.538)" fill="#f5f5f5"/>
      <path id="Path_2316" data-name="Path 2316" d="M204.9,199.948l.055.166h.175a.024.024,0,0,1,.014.043l-.141.1.053.167a.024.024,0,0,1-.036.026l-.143-.1-.143.1a.024.024,0,0,1-.036-.026l.053-.167-.141-.1a.024.024,0,0,1,.014-.043h.175l.055-.166A.024.024,0,0,1,204.9,199.948Z" transform="translate(-199.2 -197.323)" fill="#f5f5f5"/>
      <path id="Path_2317" data-name="Path 2317" d="M204.9,230.6l.055.166h.175a.024.024,0,0,1,.014.043l-.141.1.053.167a.024.024,0,0,1-.036.026l-.143-.1-.143.1a.024.024,0,0,1-.036-.026l.053-.167-.141-.1a.024.024,0,0,1,.014-.043h.175l.055-.166A.024.024,0,0,1,204.9,230.6Z" transform="translate(-199.2 -227.107)" fill="#f5f5f5"/>
    </g>
  </g>
</svg>
